# xmcd
#
# Track frame offsets:
#	150
#	18711
#	35668
#	51487
#	69894
#	88289
#	101213
#	118934
#	138065
#	154493
#	173395
#	187799
#
# Disc length: 2681 seconds
#
# Revision: 0
# Processed by: cddbd v1.5.1PL2 Copyright (c) Steve Scherf et al.
# Submitted via: audiograbber 1.81.02
#
DISCID=a40a770c
DTITLE=Acoustic Soul - Come Over Here
DYEAR=2006
DGENRE=Acoustic
TTITLE0=Come Over Here
TTITLE1=How Does It Feel
TTITLE2=100 Years
TTITLE3=Only Love Will Last
TTITLE4=Off Road
TTITLE5=Lessons
TTITLE6=Don't Get Me Right
TTITLE7=Funny
TTITLE8=Another Place
TTITLE9=Words Can't Say
TTITLE10=Still My Heart Is Waiting
TTITLE11=Emily
EXTD=
EXTT0=
EXTT1=
EXTT2=
EXTT3=
EXTT4=
EXTT5=
EXTT6=
EXTT7=
EXTT8=
EXTT9=
EXTT10=
EXTT11=
PLAYORDER=
